<svg height="512pt" viewBox="0 0 512 512" width="512pt" xmlns="http://www.w3.org/2000/svg"><path d="m512 256c0 6.207031-.21875 12.347656-.660156 18.441406-2.859375 40.257813-15.035156 77.949219-34.375 110.902344-6.058594 10.335938-12.820313 20.199219-20.230469 29.539062-6.027344 7.609376-12.484375 14.871094-19.328125 21.746094-7.210938 7.242188-14.859375 14.0625-22.894531 20.40625-17.835938 14.085938-37.59375 25.839844-58.804688 34.816406-14.285156 6.050782-29.238281 10.835938-44.703125 14.222657-12.800781 2.796875-25.976562 4.648437-39.421875 5.453125-5.152343.3125-10.34375.46875-15.582031.46875-4.1875 0-8.359375-.105469-12.496094-.300782-89.347656-4.296874-166.679687-54.386718-209.03125-127.320312-21.921875-37.742188-34.46874975-81.597656-34.46874975-128.375 0-141.386719 114.61328175-256 255.99609375-256 141.386719 0 256 114.613281 256 256zm0 0" fill="#66baed"/><path d="m201.292969 332.246094v173.890625c-80.78125-17.585938-147.320313-73.300781-179.816407-147.351563v-26.539062c0-31.378906 21.304688-57.785156 50.246094-65.515625 1.058594-.292969 2.121094-.554688 3.210938-.785157 2.871094-.625 5.820312-1.054687 8.816406-1.296874 1.828125-.144532 3.679688-.226563 5.550781-.226563h44.167969c4.941406 0 9.746094.519531 14.386719 1.523437.273437.050782.53125.117188.792969.179688.785156.175781 1.558593.363281 2.332031.574219.03125.007812.03125.007812.0625.019531 7.636719 2.039062 14.742187 5.382812 21.054687 9.769531 17.648438 12.246094 29.195313 32.652344 29.195313 55.757813zm0 0" fill="#3d4159"/><path d="m151.207031 265.945312-.164062.773438-21.636719 100.601562c-1.117188.097657-2.242188.183594-3.367188.261719-1.582031.101563-3.175781.199219-4.777343.269531-3.273438.152344-6.5625.230469-9.867188.230469-3.394531 0-6.761719-.078125-10.113281-.242187-1.515625-.066406-3.03125-.152344-4.546875-.265625-1.132813-.078125-2.257813-.15625-3.382813-.253907l-21.625-100.59375-.164062-.78125zm0 0" fill="#f74f4f"/><path d="m129.59375 288.894531-18.207031 29.199219-18.207031-29.199219" fill="#dde8ed"/><path d="m126.039062 367.582031c-1.582031.101563-11.339843 51.703125-14.648437 51.703125-3.394531 0-13.140625-51.597656-14.65625-51.710937l14.65625-57.078125zm0 0" fill="#dde8ed"/><path d="m111.378906 292.1875-30.53125 16.96875-9.289062-43.207031 18.972656-11.171875" fill="#dd3033"/><path d="m111.378906 292.1875 30.535156 16.96875 9.289063-43.207031-18.972656-11.171875" fill="#dd3033"/><path d="m152.359375 324.25h9.683594l-41.554688 107.550781-8.179687 21.179688-9.070313-22.539063 8.347657-28.660156 39.394531-135.082031.230469-.753907 20.886718 6.824219zm0 0" fill="#2a2f4f"/><path d="m120.488281 431.800781-8.179687 21.179688-9.070313-22.539063-42.746093-106.191406h9.695312l-19.746094-51.480469 20.894532-6.824219.222656.753907 40.027344 135.082031zm0 0" fill="#2a2f4f"/><path d="m135.582031 238.296875v29.695313c0 10.875-7.167969 20.0625-17.042969 23.113281-2.257812.703125-4.667968 1.082031-7.15625 1.082031-13.363281 0-24.195312-10.832031-24.195312-24.195312v-29.695313zm0 0" fill="#eab599"/><path d="m135.582031 266.113281v1.878907c0 10.875-7.167969 20.0625-17.042969 23.113281-8.90625-2.738281-15.605468-10.484375-16.84375-19.960938 1.617188.097657 3.242188.148438 4.875.148438 4.578126 0 9.066407-.363281 13.4375-1.082031 5.386719-.863282 10.59375-2.25 15.574219-4.097657zm0 0" fill="#f6caae"/><path d="m45.003906 189.628906c0 11.203125-8.179687 20.492188-18.894531 22.214844-1.171875.191406-2.378906.289062-3.605469.289062-12.433594 0-22.503906-10.074218-22.503906-22.503906 0-12.429687 10.070312-22.503906 22.503906-22.503906 1.226563 0 2.433594.101562 3.605469.289062 10.714844 1.726563 18.894531 11.011719 18.894531 22.214844zm0 0" fill="#f6caae"/><path d="m45.003906 189.628906c0 11.203125-8.179687 20.492188-18.894531 22.214844-1.949219-7.078125-2.988281-14.527344-2.988281-22.214844s1.039062-15.136718 2.988281-22.214844c10.714844 1.726563 18.894531 11.011719 18.894531 22.214844zm0 0" fill="#eab599"/><path d="m30.546875 189.628906c0 4.441406-3.601563 8.042969-8.042969 8.042969s-8.042968-3.601563-8.042968-8.042969 3.601562-8.042968 8.042968-8.042968 8.042969 3.601562 8.042969 8.042968zm0 0" fill="#eab599"/><path d="m177.761719 189.628906c0 11.203125 8.183593 20.492188 18.898437 22.214844 1.171875.191406 2.375.289062 3.605469.289062 12.429687 0 22.5-10.074218 22.5-22.503906 0-12.429687-10.070313-22.503906-22.5-22.503906-1.230469 0-2.433594.101562-3.605469.289062-10.714844 1.726563-18.898437 11.011719-18.898437 22.214844zm0 0" fill="#f6caae"/><path d="m177.761719 189.628906c0 11.203125 8.183593 20.492188 18.898437 22.214844 1.945313-7.078125 2.984375-14.527344 2.984375-22.214844s-1.039062-15.136718-2.984375-22.214844c-10.714844 1.726563-18.898437 11.011719-18.898437 22.214844zm0 0" fill="#eab599"/><path d="m195.109375 145.789062v31.882813c0 41.664063-30.4375 76.226563-70.289063 82.640625-.132812.019531-.277343.042969-.410156.066406-4.238281.679688-8.589844 1.011719-13.027344 1.011719-46.238281 0-83.722656-37.484375-83.722656-83.71875v-31.882813c0-9.738281 1.660156-19.09375 4.730469-27.785156 11.449219-32.585937 42.496094-55.945312 78.992187-55.945312h.003907c4.433593 0 8.792969.34375 13.039062 1.011718 40.046875 6.261719 70.683594 40.914063 70.683594 82.71875zm0 0" fill="#eab599"/><path d="m208.304688 189.628906c0 4.441406-3.597657 8.042969-8.039063 8.042969-4.445313 0-8.042969-3.601563-8.042969-8.042969s3.597656-8.042968 8.042969-8.042968c4.441406 0 8.039063 3.601562 8.039063 8.042968zm0 0" fill="#eab599"/><path d="m195.109375 145.789062v31.882813c0 41.664063-30.4375 76.226563-70.289063 82.640625-.132812.019531-.277343.042969-.410156.066406-40.046875-6.257812-70.675781-40.910156-70.675781-82.707031v-31.882813c0-41.804687 30.636719-76.460937 70.691406-82.71875 40.046875 6.261719 70.683594 40.914063 70.683594 82.71875zm0 0" fill="#f6caae"/><path d="m93.554688 172.792969c0 5.246093-4.253907 9.5-9.5 9.5-5.242188 0-9.496094-4.253907-9.496094-9.5 0-5.242188 4.253906-9.496094 9.496094-9.496094 5.246093 0 9.5 4.253906 9.5 9.496094zm0 0" fill="#3d4159"/><path d="m148.210938 172.792969c0 5.246093-4.25 9.5-9.496094 9.5s-9.5-4.253907-9.5-9.5c0-5.242188 4.253906-9.496094 9.5-9.496094s9.496094 4.253906 9.496094 9.496094zm0 0" fill="#3d4159"/><path d="m91.617188 171.117188c0 2.25-1.820313 4.070312-4.070313 4.070312-2.246094 0-4.070313-1.820312-4.070313-4.070312 0-2.246094 1.824219-4.066407 4.070313-4.066407 2.25 0 4.070313 1.820313 4.070313 4.066407zm0 0" fill="#fff"/><path d="m146.742188 171.117188c0 2.25-1.824219 4.070312-4.070313 4.070312s-4.070313-1.820312-4.070313-4.070312c0-2.246094 1.824219-4.066407 4.070313-4.066407s4.070313 1.820313 4.070313 4.066407zm0 0" fill="#fff"/><path d="m120.882812 192.984375h-18.996093c-2.261719 0-4.097657-1.835937-4.097657-4.097656s1.835938-4.097657 4.097657-4.097657h18.996093c2.261719 0 4.097657 1.835938 4.097657 4.097657s-1.835938 4.097656-4.097657 4.097656zm0 0" fill="#eab599"/><path d="m111.382812 218.90625c-7.007812 0-14.019531-1.757812-20.410156-5.269531-1.800781-.992188-2.460937-3.257813-1.46875-5.058594.992188-1.804687 3.253906-2.460937 5.058594-1.472656 10.535156 5.792969 23.113281 5.792969 33.648438 0 1.800781-.988281 4.066406-.332031 5.054687 1.472656.992187 1.800781.335937 4.066406-1.46875 5.058594-6.390625 3.511719-13.402344 5.269531-20.414063 5.269531zm0 0" fill="#eab599"/><path d="m195.109375 116.855469v32.65625h-15.582031v-25.574219l-112.484375-20.902344-23.800781-4.425781v50.902344h-15.582032v-32.65625c0-37.230469 30.175782-67.40625 67.398438-67.40625h32.648437c.886719 0 1.773438.011719 2.660157.058593 35.988281 1.382813 64.742187 31.003907 64.742187 67.347657zm0 0" fill="#e8c934"/><path d="m195.109375 116.855469v32.65625h-15.582031v-25.574219l-112.484375-20.902344c6.199219-29.765625 32.023437-52.324218 63.324219-53.527344 35.988281 1.382813 64.742187 31.003907 64.742187 67.347657zm0 0" fill="#ffe152"/><path d="m456.734375 414.882812c-6.027344 7.609376-12.484375 14.871094-19.328125 21.746094-23.230469 23.332032-50.929688 42.203125-81.699219 55.222656-14.285156 6.050782-29.238281 10.835938-44.703125 14.222657-12.800781 2.796875-25.976562 4.648437-39.421875 5.453125v-14.742188c0-41.535156 28.210938-76.5 66.527344-86.75 1.398437-.363281 2.808594-.71875 4.242187-1.023437 3.804688-.824219 7.710938-1.398438 11.691407-1.722657 2.414062-.199218 4.859375-.292968 7.347656-.292968h58.472656c6.527344 0 12.902344.6875 19.046875 2.015625.34375.074219.710938.148437 1.042969.230469 1.035156.230468 2.070313.492187 3.085937.773437.039063 0 .0625 0 .082032.011719 4.703125 1.261718 9.257812 2.882812 13.613281 4.855468zm0 0" fill="#dd3033"/><path d="m456.734375 414.882812c-36.003906 45.433594-87.109375 78.359376-145.730469 91.191407v-9.289063c0-41.535156 28.210938-76.5 66.527344-86.75 1.402344-.363281 2.8125-.71875 4.242188-1.023437 3.804687-.824219 7.714843-1.398438 11.695312-1.722657 2.421875-.199218 4.867188-.292968 7.34375-.292968h19.050781c6.527344 0 12.902344.6875 19.046875 2.015625.34375.074219.710938.148437 1.042969.230469 1.035156.230468 2.070313.492187 3.085937.773437.039063 0 .0625 0 .082032.011719 4.703125 1.261718 9.257812 2.882812 13.613281 4.855468zm0 0" fill="#f74f4f"/><path d="m443.351562 409.011719-.230468 1.015625-5.714844 26.601562c-23.230469 23.332032-50.929688 42.203125-81.699219 55.222656l-17.597656-81.816406-.21875-1.023437zm0 0" fill="#f2f0ec"/><path d="m390.617188 443.753906-40.429688 22.464844-12.296875-57.203125 25.121094-14.792969" fill="#d8d5d0"/><path d="m443.339844 409.023438-5.933594 27.605468c-7.210938 7.242188-14.859375 14.0625-22.894531 20.40625l-23.898438-13.28125 27.609375-49.527344zm0 0" fill="#d8d5d0"/><path d="m511.339844 249.917969v24.523437c-2.859375 40.257813-15.035156 77.949219-34.375 110.902344h-207.054688v-135.425781c0-13.75 2.296875-27.242188 6.832032-40.0625 16.949218-48.230469 62.714843-80.65625 113.882812-80.65625 6.332031 0 12.664062.492187 18.808594 1.464843 28.109375 4.398438 53.894531 18.746094 72.597656 40.40625 18.902344 21.890626 29.308594 49.894532 29.308594 78.847657zm0 0" fill="#3d4159"/><path d="m319.570312 255.207031c0 47.90625 28.046876 103.324219 43.453126 130.136719h-93.113282v-135.421875c0-13.757813 2.296875-27.238281 6.828125-40.070313 16.84375-47.953124 62.191407-80.273437 113.003907-80.636718-37.113282.925781-70.171876 60.464844-70.171876 125.992187zm0 0" fill="#2a2f4f"/><path d="m422.664062 372.402344v39.316406c0 14.394531-9.488281 26.5625-22.5625 30.601562-2.992187.929688-6.179687 1.429688-9.480468 1.429688-17.691406 0-32.03125-14.339844-32.03125-32.03125v-39.316406zm0 0" fill="#eab599"/><path d="m422.664062 409.230469v2.488281c0 14.394531-9.488281 26.5625-22.5625 30.601562-11.792968-3.625-20.664062-13.878906-22.300781-26.429687 2.140625.132813 4.292969.199219 6.453125.199219 6.0625 0 12.003906-.480469 17.792969-1.433594 7.128906-1.144531 14.023437-2.980469 20.617187-5.425781zm0 0" fill="#f6caae"/><path d="m302.742188 307.964844c0 14.832031-10.832032 27.128906-25.019532 29.410156-1.550781.253906-3.144531.382812-4.773437.382812-16.460938 0-29.792969-13.332031-29.792969-29.792968 0-16.457032 13.332031-29.792969 29.792969-29.792969 1.625 0 3.222656.128906 4.773437.382813 14.1875 2.28125 25.019532 14.578124 25.019532 29.410156zm0 0" fill="#f6caae"/><path d="m302.742188 307.964844c0 14.832031-10.832032 27.128906-25.019532 29.410156-2.578125-9.367188-3.953125-19.230469-3.953125-29.410156 0-10.179688 1.375-20.039063 3.953125-29.410156 14.1875 2.28125 25.019532 14.578124 25.019532 29.410156zm0 0" fill="#eab599"/><path d="m283.597656 307.964844c0 5.882812-4.769531 10.648437-10.648437 10.648437-5.882813 0-10.648438-4.765625-10.648438-10.648437 0-5.878906 4.765625-10.648438 10.648438-10.648438 5.878906 0 10.648437 4.769532 10.648437 10.648438zm0 0" fill="#eab599"/><path d="m467.128906 269.921875v102.414063c-15.832031 15.109374-36.128906 25.574218-58.714844 29.210937-.175781.03125-.363281.0625-.542968.089844-5.609375.898437-11.371094 1.34375-17.25 1.34375-61.214844 0-110.84375-49.628907-110.84375-110.847657v-42.210937c0-5.40625.382812-10.722656 1.132812-15.917969 26.375 18.964844 64.1875 17.09375 88.28125-5.679687 7.976563-7.535157 13.519532-16.511719 16.65625-26.027344 1.746094 16.667969 9.371094 32.890625 22.882813 45.664063 16.085937 15.1875 37.339843 22.515624 58.398437 21.960937zm0 0" fill="#eab599"/><path d="m467.128906 269.921875v102.414063c-15.832031 15.109374-36.128906 25.574218-58.714844 29.210937-.175781.03125-.363281.0625-.542968.089844-53.019532-8.285157-93.574219-54.164063-93.574219-109.503907v-42.210937c0-1.125.019531-2.238281.058594-3.355469 19.546875 2.003906 39.84375-4.070312 54.835937-18.242187 7.980469-7.535157 13.523438-16.511719 16.65625-26.027344 1.746094 16.667969 9.371094 32.890625 22.882813 45.664063 16.085937 15.1875 37.339843 22.515624 58.398437 21.960937zm0 0" fill="#f6caae"/><path d="m273.996094 232.746094 1.25-3.296875c-.417969-.375-.839844-.738281-1.25-1.121094zm0 0" fill="#ffe152"/><path d="m450.15625 282.773438c0-10.167969-8.242188-18.410157-18.410156-18.410157-10.167969 0-18.410156 8.242188-18.410156 18.410157" fill="#eab599"/><path d="m367.925781 282.773438c0-10.167969-8.242187-18.410157-18.410156-18.410157s-18.410156 8.242188-18.410156 18.410157" fill="#eab599"/><path d="m362.09375 290.609375c0 6.945313-5.632812 12.574219-12.578125 12.574219s-12.574219-5.628906-12.574219-12.574219 5.628906-12.574219 12.574219-12.574219 12.578125 5.628906 12.578125 12.574219zm0 0" fill="#3d4159"/><path d="m444.320312 290.609375c0 6.945313-5.628906 12.574219-12.574218 12.574219-6.945313 0-12.574219-5.628906-12.574219-12.574219s5.628906-12.574219 12.574219-12.574219c6.945312 0 12.574218 5.628906 12.574218 12.574219zm0 0" fill="#3d4159"/><path d="m403.207031 322.269531h-25.148437c-2.996094 0-5.425782-2.425781-5.425782-5.421875s2.429688-5.425781 5.425782-5.425781h25.148437c2.996094 0 5.425781 2.429687 5.425781 5.425781s-2.429687 5.421875-5.425781 5.421875zm0 0" fill="#eab599"/><path d="m390.632812 356.589844c-9.285156 0-18.566406-2.324219-27.027343-6.976563-2.386719-1.3125-3.257813-4.3125-1.945313-6.699219 1.3125-2.386718 4.3125-3.253906 6.695313-1.945312 13.949219 7.667969 30.601562 7.667969 44.550781 0 2.386719-1.3125 5.382812-.441406 6.695312 1.945312 1.3125 2.386719.441407 5.386719-1.945312 6.699219-8.460938 4.652344-17.742188 6.976563-27.023438 6.976563zm0 0" fill="#eab599"/><path d="m359.527344 288.390625c0 2.976563-2.410156 5.386719-5.386719 5.386719s-5.390625-2.410156-5.390625-5.386719 2.414062-5.390625 5.390625-5.390625 5.386719 2.414062 5.386719 5.390625zm0 0" fill="#fff"/><path d="m442.375 288.390625c0 2.976563-2.414062 5.386719-5.390625 5.386719-2.972656 0-5.386719-2.410156-5.386719-5.386719s2.414063-5.390625 5.386719-5.390625c2.976563 0 5.390625 2.414062 5.390625 5.390625zm0 0" fill="#fff"/><path d="m466.074219 321.238281c0 7.625-6.179688 13.808594-13.804688 13.808594s-13.808593-6.183594-13.808593-13.808594 6.183593-13.808593 13.808593-13.808593 13.804688 6.183593 13.804688 13.808593zm0 0" fill="#eab599"/><path d="m342.792969 321.238281c0 7.625-6.179688 13.808594-13.808594 13.808594-7.625 0-13.804687-6.183594-13.804687-13.808594s6.179687-13.808593 13.804687-13.808593c7.628906 0 13.808594 6.183593 13.808594 13.808593zm0 0" fill="#eab599"/><path d="m243.503906 345.972656v165.722656c-89.347656-4.296874-166.679687-54.386718-209.03125-127.320312v-38.402344zm0 0" fill="#f2f0ec"/><path d="m243.503906 487.027344 37.613282-62.691406-54.855469 17.238281" fill="#f2f0ec"/><path d="m221.519531 6.550781h155.691407v117.027344h-155.691407zm0 0" fill="#f2f0ec"/><path d="m252.867188 116.265625-16.71875 39.707031 73.144531-41.796875zm0 0" fill="#f2f0ec"/><g fill="#3d4159"><path d="m281.21875 65.066406c0 6.058594-4.910156 10.96875-10.96875 10.96875-6.0625 0-10.972656-4.910156-10.972656-10.96875s4.910156-10.972656 10.972656-10.972656c6.058594 0 10.96875 4.914062 10.96875 10.972656zm0 0"/><path d="m310.335938 65.066406c0 6.058594-4.910157 10.96875-10.972657 10.96875-6.058593 0-10.96875-4.910156-10.96875-10.96875s4.910157-10.972656 10.96875-10.972656c6.0625 0 10.972657 4.914062 10.972657 10.972656zm0 0"/><path d="m339.453125 65.066406c0 6.058594-4.914063 10.96875-10.972656 10.96875-6.058594 0-10.96875-4.910156-10.96875-10.96875s4.910156-10.972656 10.96875-10.972656c6.058593 0 10.972656 4.914062 10.972656 10.972656zm0 0"/><path d="m112.851562 428.832031c0 7.503907-6.082031 13.585938-13.582031 13.585938-7.503906 0-13.585937-6.082031-13.585937-13.585938 0-7.5 6.082031-13.582031 13.585937-13.582031 7.5 0 13.582031 6.082031 13.582031 13.582031zm0 0"/><path d="m148.898438 428.832031c0 7.503907-6.078126 13.585938-13.582032 13.585938-7.5 0-13.582031-6.082031-13.582031-13.585938 0-7.5 6.082031-13.582031 13.582031-13.582031 7.503906 0 13.582032 6.082031 13.582032 13.582031zm0 0"/><path d="m184.949219 428.832031c0 7.503907-6.082031 13.585938-13.582031 13.585938-7.503907 0-13.585938-6.082031-13.585938-13.585938 0-7.5 6.082031-13.582031 13.585938-13.582031 7.5 0 13.582031 6.082031 13.582031 13.582031zm0 0"/></g></svg>