<?xml version="1.0" encoding="iso-8859-1"?>
<!-- Generator: Adobe Illustrator 19.0.0, SVG Export Plug-In . SVG Version: 6.00 Build 0)  -->
<svg version="1.1" id="Layer_1" xmlns="http://www.w3.org/2000/svg" xmlns:xlink="http://www.w3.org/1999/xlink" x="0px" y="0px"
	 viewBox="0 0 309.268 309.268" style="enable-background:new 0 0 309.268 309.268;" xml:space="preserve">
<g>
	<path style="fill:#F4B459;" d="M57.988,106.37H251.28l57.988,57.988H0L57.988,106.37z"/>
	<path style="fill:#D07C40;" d="M67.652,125.708h173.963l48.323,48.323c0,0-3.962,48.323-10.95,48.323H28.453
		c-5.837,0-9.123-48.323-9.123-48.323L67.652,125.708z"/>
	<path style="fill:#F4B459;" d="M212.621,164.367v19.329c0,10.67-8.659,19.329-19.329,19.329h-77.317
		c-10.67,0-19.329-8.659-19.329-19.329v-19.329H0v115.975c0,10.67,8.659,19.329,19.329,19.329h270.609
		c10.67,0,19.329-8.659,19.329-19.329V164.367C309.267,164.367,212.621,164.367,212.621,164.367z"/>
	<path style="fill:#475F6C;" d="M220.044,71.364l-55.871-55.359c-5.248-8.544-13.83-8.544-19.078,0L89.214,71.364
		c-5.248,8.553-0.957,15.531,9.529,15.531h26.897v58.113c0,5.354,4.32,9.684,9.665,9.684h38.658c5.345,0,9.665-4.339,9.665-9.684
		V86.905h26.877C220.991,86.905,225.291,79.918,220.044,71.364z"/>
</g>
<g>
</g>
<g>
</g>
<g>
</g>
<g>
</g>
<g>
</g>
<g>
</g>
<g>
</g>
<g>
</g>
<g>
</g>
<g>
</g>
<g>
</g>
<g>
</g>
<g>
</g>
<g>
</g>
<g>
</g>
</svg>
